<svg width="30" height="30" viewBox="0 0 30 30" fill="none" xmlns="http://www.w3.org/2000/svg">
<g id="Vector">
<path d="M27.5 12.5C28.8807 12.5 30 13.6193 30 15C30 16.3807 28.8807 17.5 27.5 17.5H2.5C1.11929 17.5 4.89354e-08 16.3807 1.093e-07 15C1.69665e-07 13.6193 1.11929 12.5 2.5 12.5H27.5Z" fill="white"/>
<path d="M12.4909 2.5005C12.4909 1.11951 13.6104 0 14.9914 0C16.3724 0 17.4919 1.11951 17.4919 2.5005V27.4995C17.4919 28.8805 16.3724 30 14.9914 30C13.6104 30 12.4909 28.8805 12.4909 27.4995V2.5005Z" fill="white"/>
</g>
</svg>
