<svg width="34" height="31" viewBox="0 0 34 31" fill="none" xmlns="http://www.w3.org/2000/svg">
<g clip-path="url(#clip0_10_10021)">
<path fill-rule="evenodd" clip-rule="evenodd" d="M18.687 21.9204C18.687 21.6933 18.8712 21.5091 19.0984 21.5091L24.1166 21.5091L24.1166 16.4908C24.1166 16.2636 24.3008 16.0795 24.528 16.0795C24.7552 16.0794 24.9393 16.2636 24.9393 16.4908L24.9393 21.5091L29.9576 21.5091C30.1848 21.5091 30.369 21.6932 30.3689 21.9204C30.369 22.1476 30.1848 22.3318 29.9576 22.3318L24.9393 22.3318L24.9393 27.3501C24.9393 27.5773 24.7552 27.7614 24.528 27.7614C24.3008 27.7614 24.1166 27.5773 24.1166 27.3501L24.1166 22.3318L19.0984 22.3318C18.8712 22.3318 18.687 22.1476 18.687 21.9204Z" fill="#A8B3DA" stroke="#A8B3DA"/>
</g>
<path d="M27.25 14.5312C27.25 7.5414 21.5836 1.875 14.5938 1.875C7.6039 1.875 1.9375 7.5414 1.9375 14.5312C1.9375 21.5211 7.6039 27.1875 14.5938 27.1875C16.1433 27.1875 17.6278 26.909 19 26.3994" stroke="#A8B3DA" stroke-width="2" stroke-linecap="round"/>
<path d="M13.8057 20.8145C12.4883 20.7588 11.4461 20.4526 10.6792 19.896C9.91227 19.3394 9.42057 18.5353 9.2041 17.4839L10.7812 17.1406C10.9359 17.8766 11.2575 18.4302 11.7461 18.8013C12.2409 19.1724 12.9274 19.3857 13.8057 19.4414V14.8398C13.4408 14.7471 13.113 14.6605 12.8223 14.5801C12.5378 14.4935 12.2873 14.41 12.0708 14.3296C11.8605 14.2492 11.6842 14.175 11.542 14.1069C10.9173 13.7791 10.4689 13.3988 10.1968 12.9658C9.93083 12.5267 9.79785 11.9701 9.79785 11.2959C9.79785 10.3372 10.1442 9.58887 10.8369 9.05078C11.5358 8.50651 12.5254 8.20654 13.8057 8.15088V6.93555H14.9561V8.15088C15.7292 8.18799 16.3817 8.31478 16.9136 8.53125C17.4455 8.74772 17.8784 9.06934 18.2124 9.49609C18.5464 9.91667 18.8 10.4578 18.9731 11.1196L17.3589 11.4258C17.2352 10.8444 16.9847 10.3929 16.6074 10.0713C16.2301 9.74349 15.6797 9.54557 14.9561 9.47754V13.606C15.5065 13.7358 15.9797 13.8626 16.3755 13.9863C16.7713 14.1038 17.0868 14.2152 17.3218 14.3203C18.0269 14.6481 18.5247 15.0439 18.8154 15.5078C19.1123 15.9717 19.2607 16.5778 19.2607 17.3262C19.2607 18.3467 18.8866 19.1662 18.1382 19.7847C17.3898 20.4032 16.3291 20.7464 14.9561 20.8145V22.3174H13.8057V20.8145ZM11.3936 11.2773C11.3936 11.6484 11.4709 11.9577 11.6255 12.2051C11.7801 12.4587 12.009 12.672 12.312 12.8452C12.6213 13.0184 13.1191 13.1916 13.8057 13.3647V9.45898C12.1976 9.54557 11.3936 10.1517 11.3936 11.2773ZM17.665 17.3447C17.665 16.9427 17.5846 16.6118 17.4238 16.3521C17.263 16.0923 17.0311 15.8758 16.728 15.7026C16.425 15.5356 15.8343 15.3377 14.9561 15.1089V19.4507C15.8281 19.395 16.4961 19.1878 16.96 18.8291C17.43 18.4704 17.665 17.9756 17.665 17.3447Z" fill="#A8B3DA"/>
<defs>
<clipPath id="clip0_10_10021">
<rect width="12.7521" height="12.7521" fill="white" transform="translate(15.5109 21.9204) rotate(-45)"/>
</clipPath>
</defs>
</svg>
