<svg width="30" height="30" viewBox="0 0 30 30" fill="none" xmlns="http://www.w3.org/2000/svg">
<g clip-path="url(#clip0_13_49533)">
<path fill-rule="evenodd" clip-rule="evenodd" d="M6.41167 15C6.41167 14.666 6.68246 14.3952 7.01651 14.3952L14.3951 14.3951L14.3952 7.01652C14.3951 6.6825 14.6659 6.4117 14.9999 6.41173C15.334 6.41169 15.6048 6.68249 15.6048 7.01656L15.6048 14.3951L22.9834 14.3952C23.3175 14.3951 23.5883 14.6659 23.5882 15C23.5883 15.3341 23.3175 15.6049 22.9834 15.6048L15.6048 15.6049L15.6048 22.9834C15.6048 23.3175 15.334 23.5883 14.9999 23.5883C14.6659 23.5883 14.3951 23.3175 14.3952 22.9835L14.3951 15.6049L7.01651 15.6048C6.68246 15.6048 6.41167 15.334 6.41167 15Z" fill="#3451B2"/>
</g>
<circle cx="15" cy="15" r="14.5" stroke="#3451B2"/>
<defs>
<clipPath id="clip0_13_49533">
<rect width="18.75" height="18.75" fill="white" transform="translate(1.7417 15) rotate(-45)"/>
</clipPath>
</defs>
</svg>
