<svg width="38" height="38" viewBox="0 0 38 38" fill="none" xmlns="http://www.w3.org/2000/svg">
<g id="fluent:camera-20-filled">
<path id="Vector" d="M13.3001 19C13.3001 17.4883 13.9006 16.0385 14.9696 14.9695C16.0385 13.9006 17.4883 13.3 19.0001 13.3C20.5118 13.3 21.9616 13.9006 23.0306 14.9695C24.0995 16.0385 24.7001 17.4883 24.7001 19C24.7001 20.5118 24.0995 21.9616 23.0306 23.0306C21.9616 24.0995 20.5118 24.7 19.0001 24.7C17.4883 24.7 16.0385 24.0995 14.9696 23.0306C13.9006 21.9616 13.3001 20.5118 13.3001 19ZM12.8897 5.36945C13.127 4.89765 13.4907 4.50106 13.9403 4.22394C14.3898 3.94682 14.9076 3.80007 15.4357 3.80005H22.5873C23.1168 3.80007 23.6359 3.94763 24.0863 4.22618C24.5367 4.50473 24.9005 4.90325 25.1371 5.37705L26.2486 7.60005H29.4596C30.7193 7.60005 31.9275 8.10049 32.8183 8.99129C33.7091 9.88209 34.2096 11.0903 34.2096 12.35V27.55C34.2096 28.8098 33.7091 30.018 32.8183 30.9088C31.9275 31.7996 30.7193 32.3 29.4596 32.3H8.55957C7.29979 32.3 6.09161 31.7996 5.20081 30.9088C4.31002 30.018 3.80957 28.8098 3.80957 27.55V12.35C3.80957 11.0903 4.31002 9.88209 5.20081 8.99129C6.09161 8.10049 7.29979 7.60005 8.55957 7.60005H11.7706L12.8897 5.36945ZM19.0001 11.4C16.9844 11.4 15.0513 12.2008 13.6261 13.626C12.2008 15.0513 11.4001 16.9844 11.4001 19C11.4001 21.0157 12.2008 22.9488 13.6261 24.3741C15.0513 25.7993 16.9844 26.6 19.0001 26.6C21.0157 26.6 22.9488 25.7993 24.3741 24.3741C25.7994 22.9488 26.6001 21.0157 26.6001 19C26.6001 16.9844 25.7994 15.0513 24.3741 13.626C22.9488 12.2008 21.0157 11.4 19.0001 11.4Z" fill="white"/>
</g>
</svg>
