<svg width="32" height="32" viewBox="0 0 32 32" fill="none" xmlns="http://www.w3.org/2000/svg">
<path fill-rule="evenodd" clip-rule="evenodd" d="M9.52246 9.52222C9.77441 9.27026 10.1829 9.27026 10.4349 9.52222L16.0002 15.0875L21.5655 9.52222C21.8174 9.27026 22.2259 9.27026 22.4778 9.52222C22.7298 9.77417 22.7298 10.1827 22.4778 10.4346L16.9126 15.9999L22.4778 21.5653C22.7298 21.8172 22.7298 22.2257 22.4778 22.4776C22.2259 22.7296 21.8174 22.7296 21.5655 22.4776L16.0002 16.9123L10.4349 22.4776C10.1829 22.7296 9.77441 22.7296 9.52246 22.4776C9.27051 22.2257 9.27051 21.8172 9.52246 21.5653L15.0877 15.9999L9.52246 10.4346C9.27051 10.1827 9.27051 9.77417 9.52246 9.52222Z" fill="white"/>
<circle cx="16" cy="16" r="15.5" stroke="white"/>
</svg>
