<svg width="138" height="138" viewBox="0 0 138 138" fill="none" xmlns="http://www.w3.org/2000/svg">
<g id="Frame" clip-path="url(#clip0_65_975)">
<g id="Coin_1_">
<g id="XMLID_37_">
<g id="Group">
<path id="XMLID_40_" d="M10.4785 107.677C8.94288 100.883 9.64088 92.9805 12.5725 84.1074C23.0425 53.1901 58.9197 23.5207 92.7029 17.6977C102.335 16.034 110.851 16.5886 117.691 18.8068L120.763 16.3113L131.372 27.68C138.352 35.8599 140.167 48.3377 135.141 63.1724C124.671 94.0896 88.7941 123.759 55.0109 129.582C38.6777 132.355 25.9741 129.166 18.1565 121.541L7.54688 110.172L10.4785 107.677Z" fill="#FFD600"/>
<path id="XMLID_38_" opacity="0.2" d="M10.4785 107.677C8.94288 100.883 9.64088 92.9805 12.5725 84.1074C23.0425 53.1901 58.9197 23.5207 92.7029 17.6977C102.335 16.034 110.851 16.5886 117.691 18.8068L120.763 16.3113L131.372 27.68C138.352 35.8599 140.167 48.3377 135.141 63.1724C124.671 94.0896 88.7941 123.759 55.0109 129.582C38.6777 132.355 25.9741 129.166 18.1565 121.541L7.54688 110.172L10.4785 107.677Z" fill="#413635"/>
</g>
<path id="Vector" opacity="0.5" d="M53.6147 91.0393L44.2615 98.8033L69.3895 125.7C73.2983 124.313 77.3467 122.65 81.1159 120.57L53.6147 91.0393ZM77.3467 92.5644L70.2271 98.3874L87.6771 117.104C90.3296 115.579 92.982 113.915 95.4948 112.113L77.3467 92.5644ZM15.5039 109.34L34.4895 129.721C40.4923 130.968 47.3327 130.968 55.0107 129.582C56.8255 129.305 58.6403 128.889 60.4551 128.473L30.7203 96.7236L15.5039 109.34Z" fill="#FFD600"/>
<path id="Vector_2" opacity="0.2" d="M115.318 21.5796L104.569 30.4527L135.141 63.1723C137.235 56.9334 138.212 51.1104 137.933 45.842L115.318 21.5796ZM87.3979 62.7564L116.295 93.6736C122.577 86.6029 127.882 78.9775 131.651 71.2136L107.919 45.7034L87.3979 62.7564Z" fill="#413635"/>
</g>
<path id="XMLID_33_" d="M45.2388 119.184C79.0221 113.361 114.899 83.6915 125.369 52.7742C135.839 21.857 116.854 1.61521 83.0704 7.43819C49.1476 13.1225 13.2704 42.9306 2.94 73.7092C-7.53 104.626 11.4556 125.007 45.2388 119.184Z" fill="#FFD600"/>
<g id="XMLID_18_">
<path id="XMLID_31_" d="M20.2505 71.2138C24.4385 60.8156 32.6749 50.1402 43.5637 41.1284C54.4525 32.2553 66.7373 25.8778 78.1846 23.2436C90.3298 20.6094 100.102 22.5504 105.825 28.6506C111.549 34.7509 112.387 44.1786 107.919 55.1313C103.871 65.5295 95.495 76.205 84.6062 85.2167C73.7174 94.2285 61.4325 100.606 50.1249 103.24C37.9797 105.874 28.2077 104.072 22.4841 97.8332C16.7605 91.5943 15.9229 82.1666 20.2505 71.2138Z" fill="#FFD600"/>
<g id="Group_2">
<path id="XMLID_25_" d="M9.92013 108.231C17.0397 115.856 29.3245 118.629 44.541 115.995C60.3158 113.222 77.2074 105.042 91.8654 92.8415C106.523 80.7796 117.273 66.0835 122.159 51.6647C126.905 37.8004 125.509 26.0158 118.25 18.3905C111.13 10.6265 98.8454 7.85368 83.7686 10.4879C67.9938 13.2607 51.1022 21.4406 36.4442 33.6412C21.7861 45.703 10.8973 60.3991 6.01133 74.8179C1.40453 88.6822 2.80053 100.467 9.92013 108.231ZM22.4841 97.8326C16.7605 91.7323 15.9229 82.3046 20.3901 71.3519C24.5781 60.9537 32.8145 50.2782 43.7034 41.2665C54.4526 32.2547 66.7374 25.8772 78.1846 23.243C90.3298 20.6088 100.102 22.5498 105.825 28.65C111.549 34.7503 112.387 44.178 107.919 55.1307C103.871 65.5289 95.495 76.2044 84.6062 85.2161C73.7174 94.2279 61.4326 100.605 50.125 103.24C37.9798 105.874 28.2077 103.933 22.4841 97.8326Z" fill="#FFD600"/>
<path id="XMLID_19_" opacity="0.25" d="M9.92013 108.231C17.0397 115.856 29.3245 118.629 44.541 115.995C60.3158 113.222 77.2074 105.042 91.8654 92.8415C106.523 80.7796 117.273 66.0835 122.159 51.6647C126.905 37.8004 125.509 26.0158 118.25 18.3905C111.13 10.6265 98.8454 7.85368 83.7686 10.4879C67.9938 13.2607 51.1022 21.4406 36.4442 33.6412C21.7861 45.703 10.8973 60.3991 6.01133 74.8179C1.40453 88.6822 2.80053 100.467 9.92013 108.231ZM22.4841 97.8326C16.7605 91.7323 15.9229 82.3046 20.3901 71.3519C24.5781 60.9537 32.8145 50.2782 43.7034 41.2665C54.4526 32.2547 66.7374 25.8772 78.1846 23.243C90.3298 20.6088 100.102 22.5498 105.825 28.65C111.549 34.7503 112.387 44.178 107.919 55.1307C103.871 65.5289 95.495 76.2044 84.6062 85.2161C73.7174 94.2279 61.4326 100.605 50.125 103.24C37.9798 105.874 28.2077 103.933 22.4841 97.8326Z" fill="white"/>
<g id="Group_3">
<path id="Vector_3" opacity="0.15" d="M77.2073 90.9008C79.7201 89.0985 82.2329 87.2961 84.7457 85.2165C85.7229 84.3847 86.7001 83.5528 87.6773 82.7209L86.9793 96.7238C86.1417 97.2784 85.4437 97.833 84.6061 98.3875C84.4665 98.3875 84.4665 98.5262 84.3269 98.5262C83.4893 99.0807 82.7913 99.6353 81.9537 100.19C81.8141 100.19 81.8141 100.329 81.6745 100.329C80.8369 100.883 80.1389 101.438 79.3013 101.854C79.1617 101.854 79.1617 101.992 79.0221 101.992C78.1845 102.547 77.3469 102.963 76.5093 103.517L77.2073 90.9008Z" fill="white"/>
<path id="Vector_4" opacity="0.15" d="M98.8451 70.7979L98.0075 87.4349C96.3323 88.96 94.6571 90.4851 92.9819 92.0101L93.6799 76.8981C95.6343 74.8185 97.3095 72.7388 98.8451 70.7979Z" fill="white"/>
<path id="Vector_5" opacity="0.15" d="M96.8909 9.51782C97.7285 9.51782 98.5661 9.65646 99.4037 9.65646C100.241 9.79511 100.939 9.79511 101.777 9.93375L101.079 24.9071C99.6829 24.0753 98.0077 23.5207 96.3325 23.1048L96.8909 9.51782Z" fill="white"/>
<path id="Vector_6" opacity="0.15" d="M25.9739 100.744C31.8371 104.488 40.2131 105.458 50.1247 103.24C50.6831 103.101 51.1019 102.963 51.6603 102.824L51.1019 114.609C49.9851 114.886 49.0079 115.163 47.8911 115.44C47.8911 115.44 47.8911 115.44 47.7515 115.44C46.6347 115.718 45.5179 115.856 44.5407 116.134C43.7031 116.272 42.7259 116.411 41.8883 116.55C41.4695 116.55 41.0507 116.688 40.6319 116.688C40.2131 116.688 39.7943 116.827 39.3755 116.827C38.8171 116.827 38.2587 116.966 37.7003 116.966C37.4211 116.966 37.1419 116.966 36.8627 116.966C36.1647 116.966 35.6063 116.966 34.9083 116.966C34.7687 116.966 34.6291 116.966 34.4895 116.966C33.7915 116.966 33.0935 116.966 32.3955 116.966C32.2559 116.966 32.2559 116.966 32.1163 116.966C31.4183 116.966 30.7203 116.827 29.8827 116.827C29.8827 116.827 29.8827 116.827 29.7431 116.827C29.0451 116.827 28.2075 116.688 27.5095 116.55C26.8115 116.411 26.1135 116.272 25.4155 116.134L25.9739 100.744Z" fill="white"/>
<path id="Vector_7" opacity="0.15" d="M13.5495 59.4291C15.0851 56.9335 16.8999 54.4379 18.7147 51.9424L15.9227 112.806C15.2247 112.39 14.5267 111.975 13.8287 111.42C13.6891 111.281 13.5495 111.143 13.4099 111.143C13.1307 111.004 12.8515 110.727 12.5723 110.588C12.4327 110.449 12.1535 110.311 12.0139 110.172C11.7347 110.034 11.5951 109.756 11.3159 109.618L13.5495 59.4291Z" fill="white"/>
<path id="Vector_8" opacity="0.15" d="M116.435 64.2816C115.039 66.7772 113.503 69.1341 111.828 71.6297L111.688 71.7683C110.013 74.1252 108.198 76.4822 106.104 78.8391L107.082 57.2109C107.361 56.5177 107.64 55.8244 107.919 55.2699C111.549 46.1195 111.688 38.0782 108.198 32.1166L109.176 12.1521C110.432 12.7067 111.689 13.2612 112.805 13.9545C112.945 14.0931 113.084 14.0931 113.224 14.2317C113.503 14.3704 113.782 14.6477 114.062 14.7863C114.341 15.0636 114.76 15.2022 115.039 15.4795C115.318 15.6182 115.458 15.8954 115.737 16.0341C116.016 16.3114 116.435 16.5887 116.714 16.8659C116.854 17.0046 116.993 17.1432 117.133 17.2819C117.552 17.6978 117.971 18.1137 118.389 18.5296C118.529 18.6683 118.529 18.6683 118.669 18.8069L116.435 64.2816Z" fill="white"/>
<path id="Vector_9" opacity="0.15" d="M59.6177 111.836L60.1761 100.051C64.0849 98.5262 67.9937 96.5852 71.7629 94.3669L71.2045 106.706C67.2957 108.647 63.3869 110.449 59.6177 111.836Z" fill="white"/>
<path id="Vector_10" opacity="0.15" d="M54.871 33.0872C50.9622 35.4441 47.193 38.217 43.5634 41.1284C37.421 46.2582 32.1162 51.9426 27.9282 57.6269L28.7658 40.4352C29.4638 39.742 30.0222 39.1875 30.7202 38.6329C30.9994 38.3556 31.2786 38.0783 31.6974 37.801C32.2558 37.3851 32.6746 36.8305 33.233 36.4146C33.5122 36.1373 33.7914 35.9987 34.0706 35.7214C34.9082 35.0282 35.6062 34.335 36.4438 33.6418C37.2814 32.9485 38.119 32.2553 38.9566 31.5621C39.2358 31.2848 39.6546 31.0076 39.9338 30.8689C40.4922 30.453 40.911 30.0371 41.4694 29.6211C41.8882 29.3438 42.307 28.9279 42.7258 28.6506C43.1446 28.3733 43.5634 28.0961 43.9822 27.8188C44.5406 27.4029 44.9594 27.1256 45.5178 26.7096C45.797 26.571 46.0762 26.4324 46.3554 26.1551C49.287 24.2141 52.3582 22.2731 55.4294 20.6094L54.871 33.0872Z" fill="white"/>
<path id="Vector_11" opacity="0.15" d="M90.4692 22.1343C87.398 21.9956 84.0476 22.1343 80.418 22.8275L80.9764 11.0429C81.5348 10.9042 82.0932 10.7656 82.7912 10.7656C83.0704 10.627 83.3496 10.4883 83.7684 10.4883C84.606 10.3497 85.304 10.211 86.1416 10.0724C86.4208 10.0724 86.8396 9.93375 87.1188 9.93375C87.398 9.93375 87.8168 9.79511 88.096 9.79511C89.0732 9.65646 90.0504 9.65646 91.0276 9.51782L90.4692 22.1343Z" fill="white"/>
<path id="Vector_12" opacity="0.15" d="M64.0847 16.45C65.0619 16.0341 66.0391 15.6182 67.0163 15.2023C67.9935 14.7863 68.9707 14.509 69.9479 14.0931C70.9251 13.8158 71.9023 13.3999 72.7399 13.1226C73.7171 12.8453 74.6943 12.5681 75.5319 12.2908L74.9735 24.0754C71.2043 25.1845 67.2955 26.5709 63.3867 28.3733L64.0847 16.45Z" fill="white"/>
</g>
</g>
</g>
<g id="XMLID_14_">
<g id="Group_4">
<path id="XMLID_17_" d="M49.2876 100.467C26.5328 105.458 14.8064 92.8419 23.0428 72.3228C31.2792 51.8038 56.2676 31.0074 78.8828 26.0163C101.638 21.0252 113.364 33.6416 105.128 54.1607C97.0308 74.6798 72.0424 95.4761 49.2876 100.467Z" fill="#FFD600"/>
<path id="XMLID_15_" opacity="0.45" d="M49.2876 100.467C26.5328 105.458 14.8064 92.8419 23.0428 72.3228C31.2792 51.8038 56.2676 31.0074 78.8828 26.0163C101.638 21.0252 113.364 33.6416 105.128 54.1607C97.0308 74.6798 72.0424 95.4761 49.2876 100.467Z" fill="#413635"/>
</g>
<g id="Group_5">
<path id="Vector_13" d="M105.267 54.1606C97.0308 74.6797 72.0424 95.4761 49.4272 100.467C40.772 102.408 33.6524 101.715 28.6268 98.9421C26.3932 93.951 26.5328 87.2962 29.7436 79.3935C37.98 58.8745 62.9684 38.0781 85.5836 33.087C94.2388 31.146 101.358 31.8392 106.384 34.6121C108.478 39.6032 108.338 46.258 105.267 54.1606Z" fill="#FFD600"/>
<path id="Vector_14" opacity="0.3" d="M105.267 54.1606C97.0308 74.6797 72.0424 95.4761 49.4272 100.467C40.772 102.408 33.6524 101.715 28.6268 98.9421C26.3932 93.951 26.5328 87.2962 29.7436 79.3935C37.98 58.8745 62.9684 38.0781 85.5836 33.087C94.2388 31.146 101.358 31.8392 106.384 34.6121C108.478 39.6032 108.338 46.258 105.267 54.1606Z" fill="#413635"/>
</g>
</g>
<path id="Vector_15" opacity="0.15" d="M124.113 56.1017C124.532 54.9925 124.951 53.8834 125.37 52.7742C135.84 21.857 116.854 1.61521 83.0707 7.43819C69.5295 9.65646 55.8487 15.7567 43.4243 24.2139C50.9627 19.5001 72.7403 6.74497 97.31 7.99276C121.74 9.24054 133.746 28.3732 124.113 56.1017ZM45.2391 119.184C67.0167 115.441 89.632 101.715 105.826 84.1074C85.8628 103.379 51.6607 124.036 23.0427 117.382C-4.45852 110.865 0.985889 81.1959 1.40469 78.5617C-5.43572 106.706 13.2707 124.591 45.2391 119.184Z" fill="white"/>
<g id="Group_6">
<path id="Vector_16" d="M81.1165 36.5532L76.6493 31.7007L66.8773 33.3644L64.6437 39.8806C60.3161 41.1284 56.5469 43.0694 53.4757 45.7036H53.3361C50.2649 48.3378 47.8917 51.5265 46.6353 55.4085C45.2393 59.4292 45.6581 61.9247 47.0541 63.4498L51.6609 68.3023C53.3361 70.1046 56.2677 70.7978 59.4785 71.0751C61.1537 71.2138 62.6893 71.2138 64.0853 71.3524C62.9685 73.2934 60.7349 74.4025 57.9429 74.9571C57.3845 75.0957 56.9657 75.0957 56.5469 75.0957L52.3589 70.6592L39.0969 75.9276C38.9573 77.1754 38.9573 78.2845 39.0969 79.255C39.3761 80.5028 39.9345 81.6119 40.6325 82.3051L40.7721 82.4438L45.2393 87.2963C46.0769 88.2668 47.1937 88.8213 48.5897 89.2373L47.7521 91.5942L52.2193 96.4467L61.8517 94.783L62.4101 93.2579L64.0853 88.1281C64.0853 88.1281 68.5525 87.9895 75.6721 82.1665C75.9513 81.8892 76.2305 81.7506 76.5097 81.4733C79.4413 78.8391 81.6749 75.789 82.9313 72.1843C84.1877 68.3023 83.7689 65.8067 82.2333 64.2816L77.7661 59.5678C77.7661 59.5678 77.7661 59.5678 77.6265 59.4292C77.4869 59.2905 77.3473 59.1519 77.2077 59.0132C77.0681 58.8746 76.9285 58.7359 76.7889 58.5973C76.6493 58.4587 76.5097 58.4587 76.3701 58.32C76.2305 58.32 76.2305 58.1814 76.2305 58.1814C76.0909 58.0427 75.9513 58.0427 75.8117 58.0427C74.6949 57.4882 73.4385 57.2109 72.1821 56.9336C71.4841 56.795 70.9257 56.6563 70.2277 56.6563C69.2505 56.5177 68.2733 56.5177 67.2961 56.379C66.8773 56.379 66.5981 56.379 66.1793 56.2404C65.6209 56.2404 65.2021 56.2404 64.6437 56.1017C65.6209 54.5767 67.5753 53.3289 70.7861 52.7743C71.7633 52.6357 72.4613 52.497 73.1593 52.6357L76.5097 56.2404L89.3529 51.2493C89.4925 48.8923 88.7945 47.09 87.6777 45.7036L83.2105 40.8511C82.5125 40.0192 81.5353 39.4647 80.2789 39.0487L81.1165 36.5532Z" fill="#FFD600"/>
<path id="Vector_17" opacity="0.15" d="M72.1822 51.5265L72.0425 45.2876L60.4557 46.5354L52.4985 56.1017L60.5953 61.5088L67.8545 56.5176C67.7149 56.5176 67.5753 56.5176 67.2961 56.5176C66.8773 56.5176 66.5981 56.5176 66.1793 56.379C65.6209 56.379 65.2021 56.379 64.6437 56.2403C65.6209 54.7153 67.5753 53.4675 70.7862 52.9129C71.7634 52.7743 72.4614 52.6356 73.1594 52.7743L72.1822 51.5265Z" fill="#413635"/>
<g id="Group_7">
<g id="XMLID_1_">
<g id="XMLID_2_">
<g id="Group_8">
<path id="XMLID_6_" d="M58.0825 88.5441L59.7577 83.4143C59.7577 83.4143 64.2249 83.2756 71.3445 77.4527C71.6237 77.1754 71.9029 77.0367 72.1821 76.7594C75.1137 74.1252 77.3473 71.0751 78.6037 67.4704C79.8601 63.5884 79.4413 61.0929 77.9057 59.5678C77.7661 59.4292 77.6265 59.2905 77.4869 59.1519C77.3473 59.0132 77.2077 58.8746 77.0681 58.7359C76.9285 58.5973 76.7889 58.5973 76.6493 58.4587C76.5097 58.4587 76.5097 58.32 76.5097 58.32C76.3701 58.1814 76.2305 58.1814 76.0909 58.1814C74.9741 57.6268 73.7177 57.3495 72.4613 57.0722C71.7633 56.9336 71.2049 56.795 70.5069 56.795C69.5297 56.6563 68.5525 56.6563 67.5753 56.5177C67.1565 56.5177 66.8773 56.5177 66.4585 56.379C63.8061 56.2404 61.8517 56.1017 60.7349 55.5472C60.0369 55.2699 59.6181 54.7153 59.6181 54.0221C59.6181 53.6062 59.6181 53.1903 59.8973 52.6357C60.5953 50.6947 62.5497 48.7537 66.5981 48.0605C70.9257 47.3673 72.7405 48.7537 72.3217 51.5265L85.1649 46.5354C85.3045 40.9897 81.8145 38.0782 74.5553 38.2169L76.7889 31.7007L67.0169 33.3644L64.7833 39.8806C60.4557 41.1284 56.6865 43.0694 53.6153 45.7036H53.4757C50.4045 48.3378 48.0313 51.5265 46.7749 55.4085C43.8433 64.0044 49.1481 65.8067 55.1509 66.3613C60.8745 66.9158 66.3189 66.084 64.9229 70.3819C64.0853 73.0161 61.4329 74.5412 58.2221 75.0957C53.0569 75.9276 52.2193 73.1548 52.6381 70.7978L39.0969 75.9276C38.9573 77.1754 38.9573 78.2845 39.0969 79.255C40.0741 83.9689 44.6809 85.3553 49.9857 85.078L47.7521 91.5942L57.3845 89.9305L58.0825 88.5441Z" fill="#FFD600"/>
<g id="XMLID_4_" opacity="0.25">
<g id="Group_9">
<path id="Vector_18" d="M58.0825 88.5441L59.7577 83.4143C59.7577 83.4143 64.2249 83.2756 71.3445 77.4527C71.6237 77.1754 71.9029 77.0367 72.1821 76.7594C75.1137 74.1252 77.3473 71.0751 78.6037 67.4704C79.8601 63.5884 79.4413 61.0929 77.9057 59.5678C77.7661 59.4292 77.6265 59.2905 77.4869 59.1519C77.3473 59.0132 77.2077 58.8746 77.0681 58.7359C76.9285 58.5973 76.7889 58.5973 76.6493 58.4587C76.5097 58.4587 76.5097 58.32 76.5097 58.32C76.3701 58.1814 76.2305 58.1814 76.0909 58.1814C74.9741 57.6268 73.7177 57.3495 72.4613 57.0722C71.7633 56.9336 71.2049 56.795 70.5069 56.795C69.5297 56.6563 68.5525 56.6563 67.5753 56.5177C67.1565 56.5177 66.8773 56.5177 66.4585 56.379C63.8061 56.2404 61.8517 56.1017 60.7349 55.5472C60.0369 55.2699 59.6181 54.7153 59.6181 54.0221C59.6181 53.6062 59.6181 53.1903 59.8973 52.6357C60.5953 50.6947 62.5497 48.7537 66.5981 48.0605C70.9257 47.3673 72.7405 48.7537 72.3217 51.5265L85.1649 46.5354C85.3045 40.9897 81.8145 38.0782 74.5553 38.2169L76.7889 31.7007L67.0169 33.3644L64.7833 39.8806C60.4557 41.1284 56.6865 43.0694 53.6153 45.7036H53.4757C50.4045 48.3378 48.0313 51.5265 46.7749 55.4085C43.8433 64.0044 49.1481 65.8067 55.1509 66.3613C60.8745 66.9158 66.3189 66.084 64.9229 70.3819C64.0853 73.0161 61.4329 74.5412 58.2221 75.0957C53.0569 75.9276 52.2193 73.1548 52.6381 70.7978L39.0969 75.9276C38.9573 77.1754 38.9573 78.2845 39.0969 79.255C40.0741 83.9689 44.6809 85.3553 49.9857 85.078L47.7521 91.5942L57.3845 89.9305L58.0825 88.5441Z" fill="white"/>
</g>
</g>
</g>
</g>
</g>
<path id="Vector_19" opacity="0.35" d="M66.8773 33.3644L75.2533 32.8098L74.4157 38.2169L76.6493 31.7007L66.8773 33.3644ZM83.6293 46.3968L72.3217 51.5265L85.1649 46.5354C85.3045 41.5443 82.5125 38.7714 76.9285 38.3555C77.6265 38.4942 80.6977 39.6033 82.2333 41.267C84.7461 43.9012 83.6293 46.3968 83.6293 46.3968ZM57.6637 89.9305L59.8973 83.4143L56.9657 89.0986L48.0313 91.5942L57.6637 89.9305ZM74.4157 74.5412C76.2305 72.4615 77.7661 70.1046 78.6037 67.3318C79.8601 63.4498 79.4413 60.9542 77.9057 59.4292C77.7661 59.2905 77.6265 59.1519 77.4869 59.0132C77.3473 58.8746 77.2077 58.7359 77.0681 58.5973C76.9285 58.4587 76.7889 58.4587 76.6493 58.32C76.5097 58.32 76.5097 58.1814 76.5097 58.1814C76.3701 58.0427 76.2305 58.0427 76.0909 58.0427C74.9741 57.4882 73.7177 57.2109 72.4613 56.9336C71.7633 56.795 71.2049 56.6563 70.5069 56.6563C69.5297 56.5177 68.5525 56.5177 67.5753 56.379C67.1565 56.379 66.8773 56.379 66.4585 56.2404C63.8061 56.1017 61.8517 55.9631 60.7349 55.4085C60.0369 55.1312 59.6181 54.5767 59.6181 53.8835C59.6181 53.4675 59.6181 53.0516 59.8973 52.497C60.1765 51.8038 60.5953 51.1106 61.1537 50.4174C59.8973 51.5265 58.2221 54.1607 59.1993 55.4085C60.0369 56.795 62.5497 57.3495 67.0169 57.6268C71.4841 57.9041 76.7889 58.7359 77.7661 62.0634C78.7433 65.5294 77.6265 70.7978 74.4157 74.5412ZM43.9829 84.3848C39.5157 82.0279 40.4929 76.3435 40.4929 76.3435L52.6381 70.9365L39.0969 75.9276C38.9573 77.1754 38.9573 78.2845 39.0969 79.255C39.6553 82.0279 41.6097 83.5529 43.9829 84.3848Z" fill="white"/>
</g>
<path id="Vector_20" opacity="0.15" d="M59.8972 83.4143L64.3644 88.2668L62.1308 94.783L57.6636 89.9305L59.8972 83.4143Z" fill="#413635"/>
<g id="Group_10">
<path id="Vector_21" opacity="0.15" d="M66.8774 33.3645L64.6438 39.8807C64.0854 40.0193 63.527 40.2966 62.829 40.4352L62.4102 49.447C63.3874 48.8924 64.7834 48.3379 66.319 48.0606C70.6466 47.3674 72.4614 48.7538 72.0426 51.5266L73.5782 50.9721L74.4158 32.1167L66.8774 33.3645Z" fill="white"/>
<path id="Vector_22" opacity="0.15" d="M72.3217 56.9336C71.6237 56.795 71.0653 56.6563 70.3673 56.6563C69.3901 56.5177 68.4129 56.5177 67.4357 56.379C67.0169 56.379 66.7377 56.379 66.3189 56.2404C64.6437 56.1017 63.2477 56.1017 62.1309 55.8245L61.5725 66.7772C64.0853 67.0545 65.6209 67.8863 64.7833 70.2433C64.2249 71.907 62.9685 73.1548 61.2933 73.9866L60.8745 83.137C62.5497 82.7211 66.3189 81.4733 71.3445 77.314C71.6237 77.0367 71.9029 76.8981 72.1821 76.6208C72.3217 76.4822 72.4613 76.3435 72.6009 76.2049L73.4385 57.0722C73.1593 57.2109 72.7405 57.0722 72.3217 56.9336Z" fill="white"/>
<path id="Vector_23" opacity="0.15" d="M52.6381 70.7979L43.0057 74.5412L42.5869 83.8302C44.6809 84.9394 47.3333 85.2167 50.2649 85.078L48.0313 91.5942L55.5697 90.3464L56.2677 75.2344C52.9173 75.0958 52.2193 72.7388 52.6381 70.7979Z" fill="white"/>
<path id="Vector_24" opacity="0.15" d="M53.4759 45.7038C50.2651 48.338 48.0315 51.6654 46.6355 55.5474C43.7039 64.1432 49.0087 65.9455 55.0115 66.5001C55.4303 66.5001 55.9887 66.6388 56.4075 66.6388L57.5243 42.9309C56.1283 43.6241 54.7323 44.5946 53.4759 45.7038Z" fill="white"/>
</g>
</g>
</g>
</g>
<defs>
<clipPath id="clip0_65_975">
<rect width="138" height="138" fill="white"/>
</clipPath>
</defs>
</svg>
