<svg width="47" height="47" viewBox="0 0 47 47" fill="none" xmlns="http://www.w3.org/2000/svg">
<g id="fluent:collections-24-filled">
<path id="Vector" d="M17.8465 17.2333C18.5123 16.6517 19.3035 16.2032 20.1769 15.9388L20.6606 15.8115L20.974 15.7528L21.3186 15.7038L21.6711 15.6745L22.0315 15.6647H36.719C38.3443 15.6645 39.9082 16.2862 41.0898 17.4023C42.2714 18.5184 42.9812 20.0442 43.0738 21.667L43.0835 22.0293V36.7168C43.0837 38.3424 42.4617 39.9065 41.3452 41.0882C40.2287 42.2699 38.7024 42.9795 37.0793 43.0715L36.719 43.0813H22.0315C20.4058 43.0814 18.8417 42.4595 17.66 41.343C16.4783 40.2265 15.7687 38.7002 15.6767 37.0771L15.6669 36.7187V22.0312L15.6728 21.7394L15.7002 21.3673L15.7511 20.9933L15.8216 20.629L15.9371 20.1923L16.0938 19.7302L16.2642 19.3346L16.4248 19.0173L16.6088 18.6981L16.8948 18.2732L17.0788 18.0323L17.3432 17.7268L17.5547 17.5075L17.8465 17.2333ZM29.3752 21.5416C29.0203 21.5416 28.6774 21.6702 28.4099 21.9035C28.1424 22.1367 27.9684 22.459 27.9202 22.8106L27.9065 23.0104V27.9043H23.0106C22.6557 27.9043 22.3128 28.0328 22.0453 28.2661C21.7778 28.4994 21.6039 28.8216 21.5556 29.1733L21.5419 29.373C21.5419 30.1172 22.0941 30.7301 22.8109 30.828L23.0106 30.8418H27.9065V35.7395C27.9065 36.4837 28.4587 37.0986 29.1755 37.1946L29.3752 37.2083C29.7301 37.2083 30.073 37.0797 30.3405 36.8465C30.608 36.6132 30.782 36.2909 30.8303 35.9393L30.844 35.7395V30.8418H35.7398C36.095 30.8417 36.4382 30.7129 36.7057 30.4792C36.9732 30.2455 37.147 29.9228 37.1948 29.5708L37.2085 29.375C37.2085 29.02 37.08 28.6771 36.8467 28.4096C36.6134 28.1422 36.2912 27.9682 35.9395 27.9199L35.7398 27.9062H30.844V23.0104C30.8439 22.6555 30.7154 22.3125 30.4821 22.0451C30.2488 21.7776 29.9266 21.6036 29.575 21.5553L29.3752 21.5416ZM30.515 8.28959L30.6168 8.63621L31.9759 13.7044H22.0315C20.9383 13.7044 19.8559 13.9197 18.846 14.3381C17.8361 14.7565 16.9185 15.3697 16.1456 16.1428C15.3727 16.9159 14.7597 17.8336 14.3415 18.8436C13.9234 19.8536 13.7083 20.9361 13.7085 22.0293V34.6292C12.4353 34.5533 11.2141 34.0968 10.2033 33.3189C9.19249 32.5409 8.43855 31.4774 8.03917 30.266L7.93734 29.9213L4.13621 15.7332C3.71518 14.1634 3.91068 12.4919 4.68264 11.0616C5.4546 9.6313 6.74451 8.55051 8.28788 8.04088L8.63646 7.93905L22.8226 4.13792C24.3925 3.71689 26.0639 3.91239 27.4942 4.68435C28.9245 5.45631 30.0053 6.74622 30.515 8.28959Z" fill="white"/>
</g>
</svg>
