<svg width="30" height="30" viewBox="0 0 30 30" fill="none" xmlns="http://www.w3.org/2000/svg">
<path d="M22.2916 20.2083V15.7913C22.2916 14.3769 22.2916 13.6698 22.0057 13.0482C21.7198 12.4266 21.1829 11.9663 20.1091 11.0459L19.0674 10.153C17.1265 8.48937 16.156 7.65753 15 7.65753C13.844 7.65753 12.8735 8.48937 10.9325 10.153L9.89087 11.0459C8.81703 11.9663 8.28011 12.4266 7.99421 13.0482C7.70831 13.6698 7.70831 14.3769 7.70831 15.7913V20.2083C7.70831 22.1725 7.70831 23.1546 8.31851 23.7648C8.9287 24.375 9.91079 24.375 11.875 24.375C12.1626 24.375 12.3958 24.1418 12.3958 23.8542V18.9583C12.3958 18.4981 12.7689 18.125 13.2291 18.125H16.7708C17.231 18.125 17.6041 18.4981 17.6041 18.9583V23.8542C17.6041 24.1418 17.8373 24.375 18.125 24.375C20.0892 24.375 21.0712 24.375 21.6814 23.7648C22.2916 23.1546 22.2916 22.1725 22.2916 20.2083Z" fill="#FDFDFE"/>
<path d="M10.9325 10.153L11.2579 10.5327L11.2579 10.5327L10.9325 10.153ZM19.0674 10.153L18.742 10.5327H18.742L19.0674 10.153ZM20.1091 11.0459L20.4345 10.6663L20.1091 11.0459ZM9.89087 11.0459L9.56547 10.6663V10.6663L9.89087 11.0459ZM21.7916 15.7913V20.2083H22.7916V15.7913H21.7916ZM18.125 23.875H11.875V24.875H18.125V23.875ZM8.20831 20.2083V15.7913H7.20831V20.2083H8.20831ZM10.2163 11.4255L11.2579 10.5327L10.6071 9.77342L9.56547 10.6663L10.2163 11.4255ZM18.742 10.5327L19.7837 11.4255L20.4345 10.6663L19.3928 9.77342L18.742 10.5327ZM11.2579 10.5327C12.2382 9.69242 12.9387 9.09324 13.5362 8.69863C14.1219 8.31174 14.5571 8.15753 15 8.15753V7.15753C14.2868 7.15753 13.6588 7.41924 12.9851 7.86419C12.3231 8.30142 11.5678 8.95 10.6071 9.77342L11.2579 10.5327ZM19.3928 9.77342C18.4322 8.95 17.6769 8.30142 17.0149 7.86419C16.3412 7.41924 15.7131 7.15753 15 7.15753V8.15753C15.4428 8.15753 15.878 8.31174 16.4638 8.69863C17.0613 9.09324 17.7617 9.69242 18.742 10.5327L19.3928 9.77342ZM11.875 23.875C10.8787 23.875 10.1819 23.8739 9.65562 23.8032C9.14374 23.7344 8.86877 23.608 8.67206 23.4112L7.96495 24.1184C8.37843 24.5318 8.89961 24.7105 9.52237 24.7943C10.1308 24.8761 10.907 24.875 11.875 24.875V23.875ZM7.20831 20.2083C7.20831 21.1763 7.20725 21.9526 7.28905 22.5609C7.37277 23.1837 7.55147 23.7049 7.96495 24.1184L8.67206 23.4112C8.47535 23.2145 8.34895 22.9396 8.28013 22.4277C8.20937 21.9014 8.20831 21.2046 8.20831 20.2083H7.20831ZM21.7916 20.2083C21.7916 21.2046 21.7906 21.9014 21.7198 22.4277C21.651 22.9396 21.5246 23.2145 21.3279 23.4112L22.035 24.1184C22.4485 23.7049 22.6272 23.1837 22.7109 22.5609C22.7927 21.9526 22.7916 21.1763 22.7916 20.2083H21.7916ZM18.125 24.875C19.0929 24.875 19.8692 24.8761 20.4776 24.7943C21.1003 24.7105 21.6215 24.5318 22.035 24.1184L21.3279 23.4112C21.1312 23.608 20.8562 23.7344 20.3443 23.8032C19.8181 23.8739 19.1212 23.875 18.125 23.875V24.875ZM22.7916 15.7913C22.7916 14.4227 22.8023 13.5835 22.46 12.8392L21.5515 13.2571C21.7809 13.756 21.7916 14.3312 21.7916 15.7913H22.7916ZM19.7837 11.4255C20.8923 12.3757 21.322 12.7582 21.5515 13.2571L22.46 12.8392C22.1177 12.0949 21.4736 11.5569 20.4345 10.6663L19.7837 11.4255ZM8.20831 15.7913C8.20831 14.3312 8.21901 13.756 8.44847 13.2571L7.53995 12.8392C7.19762 13.5835 7.20831 14.4227 7.20831 15.7913H8.20831ZM9.56547 10.6663C8.52637 11.5569 7.88229 12.0949 7.53995 12.8392L8.44847 13.2571C8.67793 12.7582 9.10768 12.3757 10.2163 11.4255L9.56547 10.6663ZM13.2291 18.625H16.7708V17.625H13.2291V18.625ZM17.1041 18.9583V23.8542H18.1041V18.9583H17.1041ZM11.8958 18.9583V23.8542H12.8958V18.9583H11.8958ZM16.7708 18.625C16.9549 18.625 17.1041 18.7742 17.1041 18.9583H18.1041C18.1041 18.222 17.5072 17.625 16.7708 17.625V18.625ZM13.2291 17.625C12.4928 17.625 11.8958 18.222 11.8958 18.9583H12.8958C12.8958 18.7742 13.045 18.625 13.2291 18.625V17.625ZM11.8958 23.8542C11.8958 23.8657 11.8865 23.875 11.875 23.875L11.875 24.875C12.4388 24.875 12.8958 24.418 12.8958 23.8542H11.8958ZM17.1041 23.8542C17.1041 24.418 17.5612 24.875 18.125 24.875L18.125 23.875C18.1135 23.875 18.1041 23.8657 18.1041 23.8542H17.1041Z" fill="#FDFDFE"/>
</svg>
