<svg width="38" height="38" viewBox="0 0 38 38" fill="none" xmlns="http://www.w3.org/2000/svg">
<g id="Icon/Other/018-attention">
<path id="Vector" d="M18.9998 3.16675C10.2754 3.16675 3.1665 10.2756 3.1665 19.0001C3.1665 27.7246 10.2754 34.8334 18.9998 34.8334C27.7243 34.8334 34.8332 27.7246 34.8332 19.0001C34.8332 10.2756 27.7243 3.16675 18.9998 3.16675ZM17.7074 13.3453C17.7074 12.6991 18.192 12.0528 18.9998 12.0528C19.8077 12.0528 20.2923 12.5375 20.2923 13.3453V19.8079C20.2923 20.4542 19.8077 21.1004 18.9998 21.1004C18.192 21.1004 17.7074 20.6157 17.7074 19.8079V13.3453ZM18.9998 26.2704C18.192 26.2704 17.3842 25.4626 17.3842 24.6548C17.3842 23.847 18.192 23.0392 18.9998 23.0392C19.8077 23.0392 20.6155 23.847 20.6155 24.6548C20.6155 25.4626 19.8077 26.2704 18.9998 26.2704Z" fill="white"/>
</g>
</svg>
