<svg width="40" height="40" viewBox="0 0 40 40" fill="none" xmlns="http://www.w3.org/2000/svg">
<path d="M18.2111 34.1056L17.9875 34.5528H17.9875L18.2111 34.1056ZM21.7889 34.1056L21.5652 33.6583H21.5652L21.7889 34.1056ZM22.2278 33.8861L22.4514 34.3333L22.2278 33.8861ZM23.3739 32.0981L22.875 32.0653L23.3739 32.0981ZM23.164 33.2698L22.7476 32.9931L23.164 33.2698ZM16.6261 32.0981L16.1272 32.1309L16.6261 32.0981ZM17.7722 33.8861L17.5486 34.3333L17.7722 33.8861ZM16.836 33.2698L16.4195 33.5465L16.836 33.2698ZM14.3307 24.9055L14.0469 25.3171L14.3307 24.9055ZM15.0832 25.7755L15.5411 25.5748L15.0832 25.7755ZM14.832 25.2973L15.2175 24.979L14.832 25.2973ZM25.6693 24.9055L25.3855 24.4938L25.6693 24.9055ZM24.9168 25.7755L25.3748 25.9762L24.9168 25.7755ZM25.168 25.2973L24.7825 24.979L25.168 25.2973ZM29.5 16.6667C29.5 19.9132 27.872 22.7795 25.3855 24.4938L25.9531 25.3171C28.6987 23.4242 30.5 20.2558 30.5 16.6667H29.5ZM20 7.16666C25.2467 7.16666 29.5 11.42 29.5 16.6667H30.5C30.5 10.8677 25.799 6.16666 20 6.16666V7.16666ZM10.5 16.6667C10.5 11.42 14.7533 7.16666 20 7.16666V6.16666C14.201 6.16666 9.5 10.8677 9.5 16.6667H10.5ZM14.6145 24.4938C12.128 22.7795 10.5 19.9132 10.5 16.6667H9.5C9.5 20.2558 11.3013 23.4242 14.0469 25.3171L14.6145 24.4938ZM17.125 32.0653C16.9777 29.8244 16.441 27.6281 15.5411 25.5748L14.6252 25.9762C15.4786 27.9233 15.9875 30.0059 16.1272 32.1309L17.125 32.0653ZM18.4348 33.6583L17.9958 33.4389L17.5486 34.3333L17.9875 34.5528L18.4348 33.6583ZM21.5652 33.6583C20.5799 34.151 19.4201 34.151 18.4348 33.6583L17.9875 34.5528C19.2544 35.1862 20.7456 35.1862 22.0125 34.5528L21.5652 33.6583ZM22.0042 33.4389L21.5652 33.6583L22.0125 34.5528L22.4514 34.3333L22.0042 33.4389ZM24.4589 25.5748C23.559 27.6281 23.0223 29.8244 22.875 32.0653L23.8728 32.1309C24.0125 30.0059 24.5214 27.9233 25.3748 25.9762L24.4589 25.5748ZM22.4514 34.3333C22.7059 34.2061 22.9279 34.0956 23.1024 33.9868C23.2846 33.8732 23.4522 33.7395 23.5805 33.5465L22.7476 32.9931C22.7284 33.0219 22.6909 33.0649 22.5732 33.1383C22.4479 33.2164 22.2755 33.3032 22.0042 33.4389L22.4514 34.3333ZM22.875 32.0653C22.8536 32.3909 22.8392 32.6025 22.8145 32.7616C22.7908 32.915 22.764 32.9683 22.7476 32.9931L23.5805 33.5465C23.7115 33.3493 23.7688 33.1334 23.8027 32.9148C23.8357 32.7018 23.8526 32.4385 23.8728 32.1309L22.875 32.0653ZM16.1272 32.1309C16.1474 32.4385 16.1643 32.7018 16.1973 32.9148C16.2312 33.1334 16.2885 33.3493 16.4195 33.5465L17.2524 32.9931C17.236 32.9683 17.2092 32.915 17.1855 32.7616C17.1608 32.6025 17.1464 32.3909 17.125 32.0653L16.1272 32.1309ZM17.9958 33.4389C17.7245 33.3032 17.5521 33.2164 17.4268 33.1383C17.3091 33.0649 17.2716 33.0219 17.2524 32.9931L16.4195 33.5465C16.5478 33.7395 16.7154 33.8732 16.8976 33.9868C17.0721 34.0956 17.2941 34.2061 17.5486 34.3333L17.9958 33.4389ZM14.0469 25.3171C14.3506 25.5265 14.4133 25.5756 14.4464 25.6157L15.2175 24.979C15.0731 24.8041 14.8608 24.6636 14.6145 24.4938L14.0469 25.3171ZM15.5411 25.5748C15.4429 25.3507 15.3605 25.1522 15.2175 24.979L14.4464 25.6157C14.4809 25.6575 14.5068 25.7061 14.6252 25.9762L15.5411 25.5748ZM25.3855 24.4938C25.1392 24.6636 24.9269 24.8041 24.7825 24.979L25.5536 25.6157C25.5867 25.5756 25.6494 25.5265 25.9531 25.3171L25.3855 24.4938ZM25.3748 25.9762C25.4931 25.7061 25.5191 25.6575 25.5536 25.6157L24.7825 24.979C24.6395 25.1522 24.5571 25.3507 24.4589 25.5748L25.3748 25.9762Z" fill="#FDFDFE"/>
<path d="M24.1666 27.5V27.5C21.4919 28.5699 18.5081 28.5699 15.8333 27.5V27.5" stroke="#FDFDFE"/>
<path d="M18.8571 24V19.4286C18.8571 18.6396 18.2176 18 17.4286 18H17.3636C16.6105 18 16 18.6105 16 19.3636V19.3636C16 20.1168 16.6105 20.7273 17.3636 20.7273H22.6364C23.3895 20.7273 24 20.1168 24 19.3636V19.3636C24 18.6105 23.3895 18 22.6364 18H22.5714C21.7825 18 21.1429 18.6396 21.1429 19.4286V24" stroke="#FDFDFE" stroke-linecap="round"/>
</svg>
