<svg width="24" height="24" viewBox="0 0 24 24" fill="none" xmlns="http://www.w3.org/2000/svg">
<g id="basil:settings-adjust-solid">
<path id="Vector" d="M14.1463 8.35942H2.85714C2.62981 8.35942 2.4118 8.27093 2.25105 8.11342C2.09031 7.95592 2 7.74229 2 7.51954C2 7.29679 2.09031 7.08317 2.25105 6.92566C2.4118 6.76815 2.62981 6.67967 2.85714 6.67967H14.1463C14.3237 6.1884 14.6522 5.76311 15.0865 5.46231C15.5208 5.16151 16.0396 5 16.5714 5C17.1033 5 17.622 5.16151 18.0563 5.46231C18.4906 5.76311 18.8191 6.1884 18.9966 6.67967H21.1429C21.3702 6.67967 21.5882 6.76815 21.749 6.92566C21.9097 7.08317 22 7.29679 22 7.51954C22 7.74229 21.9097 7.95592 21.749 8.11342C21.5882 8.27093 21.3702 8.35942 21.1429 8.35942H18.9966C18.8191 8.85068 18.4906 9.27597 18.0563 9.57677C17.622 9.87757 17.1033 10.0391 16.5714 10.0391C16.0396 10.0391 15.5208 9.87757 15.0865 9.57677C14.6522 9.27597 14.3237 8.85068 14.1463 8.35942ZM21.1429 17.3181C21.3702 17.3181 21.5882 17.2296 21.749 17.0721C21.9097 16.9146 22 16.701 22 16.4782C22 16.2555 21.9097 16.0418 21.749 15.8843C21.5882 15.7268 21.3702 15.6383 21.1429 15.6383H9.85371C9.67626 15.1471 9.34778 14.7218 8.91348 14.421C8.47918 14.1202 7.96041 13.9587 7.42857 13.9587C6.89673 13.9587 6.37796 14.1202 5.94366 14.421C5.50937 14.7218 5.18088 15.1471 5.00343 15.6383H2.85714C2.62981 15.6383 2.4118 15.7268 2.25105 15.8843C2.09031 16.0418 2 16.2555 2 16.4782C2 16.701 2.09031 16.9146 2.25105 17.0721C2.4118 17.2296 2.62981 17.3181 2.85714 17.3181H5.00343C5.18036 17.8099 5.50864 18.2357 5.943 18.537C6.37737 18.8382 6.89642 19 7.42857 19C7.96073 19 8.47978 18.8382 8.91414 18.537C9.3485 18.2357 9.67678 17.8099 9.85371 17.3181H21.1429Z" fill="#2F2CE6"/>
</g>
</svg>
