<svg width="69" height="69" viewBox="0 0 69 69" fill="none" xmlns="http://www.w3.org/2000/svg">
<g clip-path="url(#clip0_30_7890)">
<path d="M67.1726 58.4054L54.2361 45.4688C54.0464 45.279 53.7891 45.1726 53.5209 45.1726C53.2528 45.1726 52.9956 45.279 52.8059 45.4688L52.2855 45.9891L48.7428 42.4464C56.2177 31.9612 55.2567 17.2694 45.8557 7.86831C40.7819 2.79437 34.0358 0 26.8605 0C19.6849 0 12.9389 2.79437 7.86508 7.86817C-2.60906 18.3423 -2.60893 35.3847 7.86508 45.8587C12.9389 50.9326 19.6849 53.7268 26.8605 53.7268C32.5249 53.7268 37.9208 51.9842 42.4387 48.7548L45.9793 52.2954L45.459 52.8157C45.2693 53.0053 45.1629 53.2626 45.1629 53.5308C45.1629 53.799 45.2693 54.0562 45.459 54.2457L58.3955 67.1823C59.5677 68.3545 61.1263 69 62.7841 69C64.4418 69 66.0003 68.3545 67.1724 67.1823C68.3446 66.0101 68.9902 64.4515 68.9902 62.7939C68.9904 61.1361 68.3449 59.5776 67.1726 58.4054ZM41.9192 46.6163C41.8948 46.6349 41.872 46.6551 41.8497 46.6756C37.5568 49.9375 32.3448 51.7046 26.8602 51.7046C20.2251 51.7044 13.9871 49.1206 9.29508 44.4287C-0.390278 34.7432 -0.390278 18.9838 9.29508 9.29831C13.987 4.60643 20.225 2.02243 26.8605 2.02243C33.4957 2.02243 39.7337 4.6063 44.4256 9.29817C53.3011 18.1737 54.0417 32.1489 46.6506 41.8776C46.6357 41.8945 46.6205 41.911 46.6066 41.929C45.9338 42.8088 45.1977 43.6499 44.4187 44.4287C43.6402 45.2074 42.7991 45.9433 41.9192 46.6163ZM44.0511 47.507C44.6729 46.9873 45.2757 46.4387 45.8556 45.8587C46.4353 45.2789 46.981 44.6781 47.4966 44.0604L50.8555 47.4193L47.4094 50.8654L44.0511 47.507ZM65.7426 65.7523C65.7424 65.7523 65.7424 65.7523 65.7426 65.7523C64.1111 67.3838 61.4569 67.3836 59.8258 65.7523L47.6042 53.5306L48.1245 53.0103L53.0007 48.1342C53.0011 48.1338 53.0015 48.1333 53.0019 48.1329L53.5209 47.6139L65.7426 59.8355C66.5327 60.6258 66.968 61.6763 66.968 62.7939C66.968 63.9114 66.5327 64.962 65.7426 65.7523Z" fill="#3451B2"/>
<path d="M26.8605 5.62634C20.1017 5.62634 13.6993 8.90035 9.73404 14.3845C9.40669 14.8369 9.5083 15.4691 9.96098 15.7963C10.4137 16.1237 11.0457 16.0219 11.3729 15.5694C14.959 10.6096 20.7489 7.64864 26.8605 7.64864C37.3914 7.64864 45.9588 16.2161 45.9588 26.747C45.9588 28.11 45.8146 29.4702 45.5303 30.7897C45.4128 31.3356 45.7599 31.8736 46.3059 31.9913C46.3777 32.0068 46.4494 32.0142 46.52 32.0142C46.9862 32.0142 47.4053 31.6899 47.5074 31.2158C47.8218 29.7564 47.9814 28.253 47.9814 26.747C47.9813 15.1011 38.5065 5.62634 26.8605 5.62634Z" fill="#3451B2"/>
<path d="M45.9726 33.1017C45.452 32.8988 44.866 33.1566 44.6632 33.6769C43.6969 36.1575 42.2362 38.3835 40.3728 40.2454L38.7761 41.6716C38.6606 41.7634 38.5443 41.8548 38.4265 41.9445C38.3575 41.9971 38.2878 42.0487 38.2181 42.1005C38.1091 42.1812 37.999 42.2608 37.8881 42.3394C37.7915 42.4077 37.694 42.4751 37.5962 42.5417C37.5136 42.5979 37.4304 42.6531 37.3471 42.7081C37.1885 42.8123 37.0287 42.9143 36.8672 43.0136C36.8327 43.0349 36.7982 43.0562 36.7636 43.0772C34.755 44.2954 32.5368 45.132 30.2242 45.546C27.6502 46.5101 24.6665 45.9474 23.4964 45.5456C22.4913 45.3657 21.5039 45.1067 20.5441 44.7704L20.5376 44.7681C20.418 44.7261 20.2986 44.6828 20.1797 44.6385C20.1579 44.6303 20.1362 44.6219 20.1143 44.6136C20.0117 44.5748 19.909 44.5354 19.8069 44.4948C19.704 44.4537 19.6013 44.4118 19.4993 44.369C19.4765 44.3594 19.4536 44.3505 19.4309 44.3409C17.8104 43.654 16.3044 42.7485 14.9481 41.6633L13.3518 40.2356C9.89936 36.7781 7.76143 32.0077 7.76143 26.7474C7.76143 23.8323 8.40076 21.0344 9.66177 18.4317C9.90529 17.9291 9.69519 17.3243 9.19265 17.0806C8.6901 16.837 8.08514 17.0472 7.84175 17.5499C6.44652 20.4297 5.73914 23.5243 5.73914 26.7474C5.73914 33.0974 8.55642 38.8015 13.0063 42.6766C13.0359 42.7099 13.0672 42.7419 13.1015 42.7715C14.7637 44.2 16.6266 45.3491 18.6162 46.1923C18.6279 46.1973 18.6395 46.2026 18.6512 46.2076C18.6982 46.2274 18.7457 46.2461 18.793 46.2655C20.579 47.0065 22.4878 47.5086 24.4798 47.7331C24.4957 47.7349 24.5115 47.7368 24.5274 47.7385C24.6551 47.7527 24.7833 47.7655 24.9117 47.7772C24.955 47.7812 24.9983 47.785 25.0415 47.7887L25.0469 47.7892C25.1561 47.7985 25.2656 47.8072 25.3753 47.8149C25.4335 47.8191 25.4919 47.8226 25.5502 47.8261L25.5807 47.828L25.604 47.8294C25.6884 47.8345 25.773 47.8395 25.8577 47.8435C25.9447 47.8477 26.0319 47.8506 26.1191 47.8536L26.1431 47.8544C26.213 47.8567 26.2829 47.8598 26.3531 47.8614C26.5219 47.8655 26.6908 47.8679 26.8599 47.8679C27.0993 47.8679 27.3381 47.8625 27.5766 47.8544C27.6284 47.8527 27.6802 47.8513 27.7321 47.8492C27.9436 47.8403 28.1545 47.8283 28.365 47.8133C28.4448 47.8077 28.5246 47.8012 28.6043 47.7947L28.6287 47.7927C28.7685 47.781 28.9081 47.7676 29.0474 47.7531C29.2267 47.7347 29.4051 47.7136 29.5834 47.6907C29.6378 47.6835 29.6923 47.6765 29.7467 47.669C32.6297 47.2757 35.3863 46.2933 37.8769 44.7663C37.9253 44.7366 37.9737 44.7071 38.0219 44.6772C38.1351 44.6066 38.2484 44.5357 38.3606 44.4625C38.5065 44.3678 38.6511 44.2706 38.7949 44.1722C38.8344 44.1451 38.875 44.1198 38.9143 44.0924C38.96 44.0606 39.0039 44.0268 39.0495 43.9947C39.1768 43.9047 39.3034 43.8131 39.4289 43.7201C39.5233 43.6501 39.6169 43.5791 39.71 43.5077C39.8125 43.429 39.9146 43.3493 40.0158 43.2687C40.1119 43.1922 40.2077 43.1151 40.3023 43.0371C40.4083 42.9495 40.514 42.8612 40.6184 42.7715C40.6202 42.77 40.6215 42.7682 40.6233 42.7666C43.2522 40.5108 45.2822 37.6582 46.5472 34.411C46.7506 33.8906 46.493 33.3044 45.9726 33.1017Z" fill="#3451B2"/>
<g clip-path="url(#clip1_30_7890)">
<path d="M36.6761 20.423C34.2137 19.0051 30.9603 18.2241 27.5153 18.2241C24.0703 18.2241 20.8169 19.0051 18.3546 20.423C15.7996 21.8942 14.3926 23.8747 14.3926 25.9996V29.0899C14.3926 31.2125 15.8005 33.183 18.3569 34.6385C20.8124 36.0365 24.065 36.8065 27.5153 36.8065C30.9657 36.8065 34.2182 36.0365 36.6737 34.6385C39.2301 33.1829 40.638 31.2124 40.638 29.0899V25.9996C40.638 23.8747 39.231 21.8942 36.6761 20.423ZM18.9224 21.4091C21.2148 20.089 24.2664 19.362 27.5153 19.362C30.7641 19.362 33.8158 20.089 36.1081 21.4091C38.2955 22.6686 39.5 24.2989 39.5 25.9996C39.5 27.6906 38.2971 29.2991 36.113 30.5285C33.8321 31.8123 30.7787 32.5194 27.5152 32.5194C24.2517 32.5194 21.1984 31.8124 18.9175 30.5285C16.7334 29.2991 15.5305 27.6907 15.5305 25.9996C15.5305 24.2989 16.735 22.6686 18.9224 21.4091ZM26.9464 33.65V35.661C25.5968 35.6262 24.2887 35.4674 23.0628 35.1947V33.2156C24.2971 33.4699 25.6035 33.6175 26.9464 33.65ZM28.0843 33.65C29.4272 33.6175 30.7335 33.4698 31.9678 33.2156V35.1947C30.7419 35.4674 29.4338 35.6262 28.0843 35.661V33.65ZM15.5323 29.1702C15.9033 29.6555 16.3621 30.1167 16.9033 30.5474V32.1238C16.0292 31.2156 15.5555 30.2082 15.5323 29.1702ZM18.0412 33.0915V31.334C18.1455 31.3968 18.251 31.4591 18.3594 31.5201C19.4146 32.114 20.6192 32.5926 21.9248 32.9454V34.9016C20.8284 34.579 19.8153 34.1594 18.9199 33.6497C18.6064 33.4712 18.3138 33.2847 18.0412 33.0915ZM36.1106 33.6496C35.2153 34.1594 34.2021 34.579 33.1057 34.9015V32.9454C34.4113 32.5926 35.616 32.114 36.6712 31.52C36.7796 31.459 36.8851 31.3968 36.9894 31.3339V33.0915C36.7169 33.2847 36.4242 33.4712 36.1106 33.6496ZM38.1273 32.1238V30.5475C38.6685 30.1168 39.1273 29.6556 39.4983 29.1702C39.475 30.2082 39.0013 31.2156 38.1273 32.1238Z" fill="#3451B2"/>
<path d="M28.7838 31.0771C33.6045 31.0771 37.3807 28.836 37.3807 25.975C37.3807 25.6608 37.126 25.406 36.8118 25.406C36.4976 25.406 36.2428 25.6608 36.2428 25.975C36.2428 26.9791 35.5107 27.9441 34.1814 28.6924C32.753 29.4964 30.8361 29.9392 28.7838 29.9392C28.4696 29.9392 28.2148 30.1939 28.2148 30.5081C28.2148 30.8224 28.4696 31.0771 28.7838 31.0771Z" fill="#3451B2"/>
<path d="M18.6107 26.544C18.9249 26.544 19.1797 26.2892 19.1797 25.975C19.1797 23.5699 23.0054 21.5379 27.5337 21.5379C27.848 21.5379 28.1027 21.2832 28.1027 20.969C28.1027 20.6548 27.848 20.4 27.5337 20.4C25.0586 20.4 22.7188 20.9497 20.9451 21.9478C19.0729 23.0015 18.0417 24.4317 18.0417 25.975C18.0417 26.2892 18.2965 26.544 18.6107 26.544Z" fill="#3451B2"/>
</g>
</g>
<defs>
<clipPath id="clip0_30_7890">
<rect width="69" height="69" fill="white"/>
</clipPath>
<clipPath id="clip1_30_7890">
<rect width="26.2454" height="26.2454" fill="white" transform="translate(14.3926 14.3926)"/>
</clipPath>
</defs>
</svg>
