<svg width="40" height="40" viewBox="0 0 40 40" fill="none" xmlns="http://www.w3.org/2000/svg">
<path fill-rule="evenodd" clip-rule="evenodd" d="M3.33335 11.2104C3.33334 11.2511 3.33334 11.2921 3.33334 11.3334V20H17.7018C17.6302 19.9664 17.5574 19.9347 17.4835 19.9052C16.9595 19.696 16.3148 19.6315 15.0256 19.5026L10.5373 19.0537C7.11359 18.7114 5.40172 18.5402 4.36753 17.3974C3.34513 16.2677 3.33348 14.5734 3.33335 11.2104ZM36.5409 7.10791L35.8333 28.3333C35.0039 28.3333 34.5892 28.3333 34.1962 28.2537C33.6905 28.1513 33.2095 27.9521 32.7795 27.667C32.4453 27.4453 32.1521 27.1521 31.5656 26.5656L29.4951 24.4951C28.1618 23.1618 27.4951 22.4951 26.6667 22.4951C25.8382 22.4951 25.1716 23.1618 23.8382 24.4951L22.3576 25.9758C21.8163 26.517 21.5457 26.7877 21.3302 26.863C20.8499 27.0311 20.3199 26.8116 20.0991 26.3531C20 26.1474 20 25.7647 20 24.9993V36.6667H28.6667C32.4379 36.6667 34.3235 36.6667 35.4951 35.4951C36.6667 34.3235 36.6667 32.4379 36.6667 28.6667V11.3333C36.6667 9.54078 36.6667 8.17424 36.5409 7.10791Z" fill="#FDFDFE"/>
<path d="M4.33334 11.3334C4.33334 9.41949 4.33547 8.08467 4.47087 7.07754C4.60241 6.09917 4.84301 5.58107 5.21202 5.21205C5.58104 4.84304 6.09914 4.60244 7.0775 4.4709C8.08464 4.3355 9.41946 4.33337 11.3333 4.33337H28.6667C30.5806 4.33337 31.9154 4.3355 32.9225 4.4709C33.9009 4.60244 34.419 4.84304 34.788 5.21205L35.4951 4.50495L34.788 5.21205C35.157 5.58107 35.3976 6.09917 35.5291 7.07753C35.6646 8.08467 35.6667 9.41949 35.6667 11.3334V28.6667C35.6667 30.5806 35.6646 31.9154 35.5291 32.9225C35.3976 33.9009 35.157 34.419 34.788 34.788C34.419 35.157 33.9009 35.3976 32.9225 35.5292C31.9154 35.6646 30.5806 35.6667 28.6667 35.6667H21V22C21 21.9819 21 21.9638 21 21.9457C21.0001 21.5216 21.0002 21.1094 20.9545 20.7695C20.903 20.3863 20.7774 19.949 20.4142 19.5858C20.051 19.2226 19.6137 19.0971 19.2305 19.0456C18.8906 18.9999 18.4785 18.9999 18.0544 19C18.0363 19 18.0182 19 18 19H4.33334V11.3334Z" stroke="#FDFDFE" stroke-width="2"/>
<circle cx="26.6667" cy="13.3333" r="3.33333" fill="#FDFDFE"/>
<path d="M13.3333 26.6666V25.6666H14.3333V26.6666H13.3333ZM5.62471 34.1142C5.19344 34.4592 4.56415 34.3892 4.21914 33.958C3.87413 33.5267 3.94405 32.8974 4.37532 32.5524L5.62471 34.1142ZM12.3333 35V26.6666H14.3333V35H12.3333ZM13.3333 27.6666H5.00001V25.6666H13.3333V27.6666ZM13.958 27.4475L5.62471 34.1142L4.37532 32.5524L12.7086 25.8858L13.958 27.4475Z" fill="#FDFDFE"/>
</svg>
