<svg width="49" height="49" viewBox="0 0 49 49" fill="none" xmlns="http://www.w3.org/2000/svg">
<g id="icon-park-outline:picture-one">
<g id="Group">
<path id="Vector" d="M39.8125 6.125H9.1875C8.37527 6.125 7.59632 6.44766 7.02199 7.02199C6.44766 7.59632 6.125 8.37527 6.125 9.1875V39.8125C6.125 40.6247 6.44766 41.4037 7.02199 41.978C7.59632 42.5523 8.37527 42.875 9.1875 42.875H39.8125C40.6247 42.875 41.4037 42.5523 41.978 41.978C42.5523 41.4037 42.875 40.6247 42.875 39.8125V9.1875C42.875 8.37527 42.5523 7.59632 41.978 7.02199C41.4037 6.44766 40.6247 6.125 39.8125 6.125Z" stroke="#E565FA" stroke-width="2" stroke-linecap="round" stroke-linejoin="round"/>
<path id="Vector_2" d="M42.875 36.7499L31.6458 26.5416L21.4375 35.7291L14.2917 29.6041L6.125 35.7291M18.375 23.4791C19.7287 23.4791 21.027 22.9413 21.9842 21.9841C22.9414 21.0269 23.4792 19.7286 23.4792 18.3749C23.4792 17.0212 22.9414 15.7229 21.9842 14.7657C21.027 13.8085 19.7287 13.2708 18.375 13.2708C17.0213 13.2708 15.723 13.8085 14.7658 14.7657C13.8086 15.7229 13.2708 17.0212 13.2708 18.3749C13.2708 19.7286 13.8086 21.0269 14.7658 21.9841C15.723 22.9413 17.0213 23.4791 18.375 23.4791Z" stroke="#E565FA" stroke-width="2" stroke-linecap="round" stroke-linejoin="round"/>
</g>
</g>
</svg>
