<svg width="30" height="30" viewBox="0 0 30 30" fill="none" xmlns="http://www.w3.org/2000/svg">
<circle cx="15" cy="18.75" r="2.5" fill="#222222"/>
<path d="M5.625 15.875C5.625 13.9894 5.625 13.0466 6.21079 12.4608C6.79657 11.875 7.73938 11.875 9.625 11.875H20.375C22.2606 11.875 23.2034 11.875 23.7892 12.4608C24.375 13.0466 24.375 13.9894 24.375 15.875V19.625C24.375 22.4534 24.375 23.8676 23.4963 24.7463C22.6176 25.625 21.2034 25.625 18.375 25.625H11.625C8.79657 25.625 7.38236 25.625 6.50368 24.7463C5.625 23.8676 5.625 22.4534 5.625 19.625V15.875Z" stroke="#222222"/>
<path d="M20.625 11.875V10C20.625 9.41958 20.625 9.12937 20.6009 8.88491C20.3671 6.51103 18.489 4.63288 16.1151 4.39908C15.8706 4.375 15.5804 4.375 15 4.375V4.375C14.4196 4.375 14.1294 4.375 13.8849 4.39908C11.511 4.63288 9.63288 6.51103 9.39908 8.88491C9.375 9.12937 9.375 9.41958 9.375 10V11.875" stroke="#222222" stroke-linecap="round"/>
</svg>
