<svg width="24" height="25" viewBox="0 0 24 25" fill="none" xmlns="http://www.w3.org/2000/svg">
<g id="Icon/Other/109-unlock">
<path id="Vector" d="M20.7931 11.4211C20.6897 10.0751 19.6552 9.03966 18.3103 8.93612C16.4483 8.72904 13.9655 8.6255 12 8.6255C10.9655 8.6255 9.82759 8.6255 8.68965 8.72904V6.24405C8.68965 5.00156 9.72414 3.96615 10.9655 3.96615H13.5517C14.5862 3.96615 15.4138 4.79448 15.4138 5.82989C15.4138 6.24405 15.7241 6.65822 16.2414 6.65822C16.7586 6.65822 17.069 6.34759 17.069 5.82989C17.069 3.96615 15.5172 2.51658 13.7586 2.51658H10.9655C8.7931 2.30949 7.03448 4.06969 7.03448 6.24405V8.83258C6.51724 8.83258 6.10345 8.93612 5.68966 8.93612C4.34483 9.03966 3.31034 10.0751 3.2069 11.4211C3.10345 12.56 3 14.3202 3 15.5627C3 16.8052 3.10345 18.4619 3.2069 19.7043C3.31034 21.0504 4.34483 22.0858 5.68966 22.1893C7.55172 22.3964 10.0345 22.5 12 22.5C13.9655 22.5 16.4483 22.2929 18.3103 22.1893C19.6552 22.0858 20.6897 21.0504 20.7931 19.7043C20.8966 18.5654 21 16.9087 21 15.5627C21 14.2167 20.8966 12.6636 20.7931 11.4211ZM12.8276 16.5981C12.8276 17.0123 12.5172 17.4264 12 17.4264C11.4828 17.4264 11.1724 17.1158 11.1724 16.5981V14.5273C11.1724 14.1131 11.4828 13.699 12 13.699C12.5172 13.699 12.8276 14.0096 12.8276 14.5273V16.5981Z" fill="white"/>
</g>
</svg>
