<svg width="30" height="30" viewBox="0 0 30 30" fill="none" xmlns="http://www.w3.org/2000/svg">
<path d="M9.85 24H6C5.44772 24 5 23.5523 5 23V13C5 12.4477 5.44772 12 6 12H9.85C9.93284 12 10 12.0672 10 12.15V23.85C10 23.9328 9.93284 24 9.85 24Z" stroke="#222222" stroke-linecap="round"/>
<path d="M10 16L13.0912 9.92807C13.1627 9.78754 13.2 9.63208 13.2 9.47439V6C13.2 5.44772 13.6477 5 14.2 5H16C17.1046 5 18 5.89543 18 7V14.4286" stroke="#222222" stroke-linecap="round"/>
<path d="M18 12H23.7064C24.361 12 24.8391 12.6184 24.6742 13.2519L21.8114 24.2519C21.6967 24.6925 21.2989 25 20.8436 25H14.8037C14.519 25 14.2478 24.8786 14.0581 24.6663L13.2023 23.7087C13.0126 23.4964 12.7414 23.375 12.4567 23.375H10" stroke="#222222" stroke-linecap="round"/>
</svg>
