<svg width="23" height="23" viewBox="0 0 23 23" fill="none" xmlns="http://www.w3.org/2000/svg">
<g id="ph:star-fill">
<path id="Vector" d="M21.0685 10.2763L17.0165 13.8125L18.2303 19.0774C18.2945 19.3526 18.2762 19.6407 18.1776 19.9055C18.079 20.1704 17.9045 20.4003 17.676 20.5666C17.4474 20.7328 17.1749 20.828 16.8926 20.8402C16.6102 20.8524 16.3305 20.7811 16.0884 20.6353L11.4965 17.8501L6.91449 20.6353C6.67243 20.7811 6.39273 20.8524 6.11037 20.8402C5.82801 20.828 5.55551 20.7328 5.32695 20.5666C5.09839 20.4003 4.9239 20.1704 4.82531 19.9055C4.72671 19.6407 4.70839 19.3526 4.77262 19.0774L5.98461 13.8179L1.93176 10.2763C1.7174 10.0914 1.56239 9.84734 1.48618 9.57472C1.40997 9.3021 1.41595 9.01305 1.50336 8.74381C1.59077 8.47458 1.75573 8.23714 1.97754 8.06128C2.19936 7.88542 2.46816 7.77896 2.75023 7.75526L8.09234 7.29256L10.1776 2.31881C10.2865 2.05783 10.4702 1.8349 10.7055 1.6781C10.9409 1.52129 11.2173 1.43762 11.5001 1.43762C11.7829 1.43762 12.0594 1.52129 12.2947 1.6781C12.53 1.8349 12.7137 2.05783 12.8226 2.31881L14.9142 7.29256L20.2545 7.75526C20.5366 7.77896 20.8054 7.88542 21.0272 8.06128C21.249 8.23714 21.414 8.47458 21.5014 8.74381C21.5888 9.01305 21.5948 9.3021 21.5185 9.57472C21.4423 9.84734 21.2873 10.0914 21.073 10.2763H21.0685Z" fill="white"/>
</g>
</svg>
