<svg width="30" height="30" viewBox="0 0 30 30" fill="none" xmlns="http://www.w3.org/2000/svg">
<path d="M23.9292 2.5H21.378C20.8679 2.5 20.3577 2.88265 20.3577 3.52041C20.3577 4.15816 20.7403 4.54081 21.378 4.54081H23.9292C24.8219 4.54081 25.4597 5.30613 25.4597 6.07143V8.62245C25.4597 9.13265 25.8424 9.64286 26.4802 9.64286C27.1179 9.64286 27.5005 9.2602 27.5005 8.62245V6.07143C27.5005 4.15816 25.8424 2.5 23.9292 2.5Z" fill="#FDFDFE"/>
<path d="M26.4802 20.3571C25.9699 20.3571 25.4597 20.7397 25.4597 21.3774V23.9284C25.4597 24.8213 24.6944 25.4591 23.9292 25.4591H21.378C20.8679 25.4591 20.3577 25.8417 20.3577 26.4794C20.3577 27.1172 20.7403 27.4999 21.378 27.4999H23.9292C25.8424 27.4999 27.5005 25.9693 27.5005 23.9284V21.3774C27.5005 20.8672 26.9903 20.3571 26.4802 20.3571Z" fill="#FDFDFE"/>
<path d="M3.52041 9.64286C4.03061 9.64286 4.54081 9.2602 4.54081 8.62245V6.07143C4.54081 5.17858 5.30613 4.54081 6.07143 4.54081H8.62245C9.13265 4.54081 9.64286 4.15816 9.64286 3.52041C9.64286 2.88265 9.13265 2.5 8.62245 2.5H6.07143C4.15816 2.5 2.5 4.15816 2.5 6.07143V8.62245C2.5 9.13265 3.0102 9.64286 3.52041 9.64286Z" fill="#FDFDFE"/>
<path d="M8.62245 25.4591H6.07143C5.17858 25.4591 4.54081 24.6939 4.54081 23.9285V21.3775C4.54081 20.8672 4.15816 20.3571 3.52041 20.3571C2.88265 20.3571 2.5 20.8672 2.5 21.3775V23.9285C2.5 25.8417 4.03061 27.5 6.07143 27.5H8.62245C9.13265 27.5 9.64286 27.1172 9.64286 26.4795C9.64286 25.8417 9.13265 25.4591 8.62245 25.4591Z" fill="#FDFDFE"/>
<path d="M23.6739 17.3438C23.6739 17.3438 23.5464 18.5712 23.2913 20.2295C23.0361 21.8877 21.8882 23.0356 20.23 23.2908C18.6994 23.4184 16.6585 23.6734 15.0004 23.6734C13.3423 23.6734 11.3014 23.4184 9.77078 23.2908C8.11265 23.0356 6.96466 21.8877 6.70953 20.2295C6.4544 18.5712 6.3269 17.3438 6.3269 17.3438H23.6739Z" fill="#FDFDFE"/>
<path fill-rule="evenodd" clip-rule="evenodd" d="M23.5325 12.9883C23.4523 11.8659 23.3556 10.5424 23.2913 9.77041C23.1636 8.2398 21.8881 6.96429 20.23 6.70919C19.8261 6.67553 19.3867 6.633 18.9282 6.58861C17.649 6.46478 16.221 6.32654 15.0004 6.32654C13.7798 6.32654 12.3517 6.46478 11.0725 6.58861C10.614 6.633 10.1747 6.67553 9.77079 6.70919C8.11263 6.96429 6.96467 8.11225 6.70957 9.77041C6.67591 10.1743 6.63337 10.6137 6.58898 11.0723C6.52921 11.6896 6.46609 12.3416 6.41677 12.9883H3.52041C3.0102 12.9883 2.5 13.3718 2.5 14.011C2.5 14.6502 2.88265 15.0337 3.52041 15.0337H26.4796C26.9897 15.0337 27.5 14.6502 27.5 14.011C27.5 13.3718 26.9897 12.9883 26.4796 12.9883L23.5325 12.9883Z" fill="#FDFDFE"/>
</svg>
