<svg width="18" height="18" viewBox="0 0 18 18" fill="none" xmlns="http://www.w3.org/2000/svg">
<g id="Icon/Other/095-search">
<path id="Vector" fill-rule="evenodd" clip-rule="evenodd" d="M8.63415 3.32927C5.70335 3.32927 3.32927 5.70212 3.32927 8.62695C3.32927 11.5518 5.70335 13.9247 8.63415 13.9247C10.0964 13.9247 11.4188 13.3351 12.3791 12.3791C13.3439 11.4188 13.939 10.0931 13.939 8.62695C13.939 5.70212 11.5649 3.32927 8.63415 3.32927ZM1.5 8.62695C1.5 4.68985 4.69506 1.5 8.63415 1.5C12.5732 1.5 15.7683 4.68985 15.7683 8.62695C15.7683 10.2689 15.2116 11.7821 14.278 12.9868L16.2317 14.9383C16.5891 15.2952 16.5895 15.8743 16.2325 16.2317C15.8755 16.5891 15.2964 16.5895 14.939 16.2325L12.982 14.2778C11.7786 15.203 10.2701 15.7539 8.63415 15.7539C4.69506 15.7539 1.5 12.5641 1.5 8.62695Z" fill="#E565FA"/>
</g>
</svg>
