<svg width="25" height="25" viewBox="0 0 25 25" fill="none" xmlns="http://www.w3.org/2000/svg">
<path fill-rule="evenodd" clip-rule="evenodd" d="M14.7251 3.50149V3.50149V3.5015C14.8175 4.42485 14.8636 4.88652 15.0747 5.1274C15.2798 5.36139 15.5821 5.4866 15.8925 5.46615C16.2121 5.44509 16.5712 5.15129 17.2894 4.56368L17.2894 4.56367C17.6686 4.25344 17.8582 4.09833 18.0654 4.04255C18.2684 3.98793 18.4834 3.99865 18.68 4.0732C18.8807 4.14932 19.0539 4.32253 19.4003 4.66895L20.331 5.59965C20.6774 5.94608 20.8506 6.11929 20.9267 6.31997C21.0013 6.5165 21.012 6.73152 20.9574 6.93449C20.9016 7.14174 20.7465 7.33133 20.4363 7.7105L20.4363 7.71052C19.8486 8.42873 19.5548 8.78783 19.5338 9.10744C19.5133 9.41789 19.6385 9.72016 19.8725 9.92522C20.1134 10.1363 20.5751 10.1825 21.4985 10.2748C21.986 10.3236 22.2297 10.348 22.4157 10.4551C22.5979 10.56 22.7423 10.7196 22.8286 10.9113C22.9166 11.107 22.9166 11.352 22.9166 11.8419V13.1582C22.9166 13.648 22.9166 13.8929 22.8286 14.0886C22.7423 14.2804 22.5978 14.44 22.4156 14.5449C22.2297 14.652 21.986 14.6764 21.4986 14.7251C20.5754 14.8174 20.1139 14.8636 19.8731 15.0746C19.6389 15.2797 19.5137 15.5821 19.5342 15.8927C19.5553 16.2122 19.849 16.5712 20.4364 17.2891L20.4364 17.2891C20.7466 17.6682 20.9016 17.8577 20.9574 18.0649C21.0121 18.268 21.0013 18.4831 20.9267 18.6797C20.8506 18.8803 20.6775 19.0534 20.3312 19.3998L19.4003 20.3306C19.0539 20.677 18.8807 20.8502 18.68 20.9263C18.4835 21.0009 18.2685 21.0116 18.0655 20.957C17.8582 20.9012 17.6687 20.7461 17.2895 20.4359C16.5713 19.8482 16.2122 19.5544 15.8926 19.5334C15.5821 19.5129 15.2798 19.6381 15.0748 19.8721C14.8637 20.113 14.8175 20.5748 14.7252 21.4982C14.6764 21.9859 14.652 22.2298 14.5448 22.4158C14.44 22.5979 14.2804 22.7423 14.0888 22.8285C13.893 22.9167 13.648 22.9167 13.1579 22.9167H11.8419C11.352 22.9167 11.107 22.9167 10.9113 22.8286C10.7196 22.7423 10.56 22.5979 10.4551 22.4157C10.348 22.2297 10.3236 21.986 10.2748 21.4985C10.1825 20.5751 10.1363 20.1134 9.9252 19.8725C9.72015 19.6385 9.41788 19.5133 9.10745 19.5338C8.78783 19.5548 8.42871 19.8487 7.71048 20.4363C7.33128 20.7466 7.14168 20.9017 6.93441 20.9575C6.73145 21.0121 6.51645 21.0013 6.31993 20.9268C6.11924 20.8507 5.94602 20.6775 5.59957 20.331L4.66891 19.4004C4.32247 19.0539 4.14926 18.8807 4.07314 18.68C3.99859 18.4835 3.98787 18.2685 4.04249 18.0655C4.09826 17.8583 4.25338 17.6687 4.56363 17.2895C5.15126 16.5713 5.44507 16.2122 5.46613 15.8925C5.48658 15.5821 5.36137 15.2798 5.12739 15.0748C4.8865 14.8636 4.42483 14.8175 3.50147 14.7251H3.50146C3.01398 14.6764 2.77024 14.652 2.58425 14.5449C2.4021 14.44 2.25764 14.2804 2.17139 14.0887C2.08331 13.893 2.08331 13.648 2.08331 13.1581L2.08331 11.842C2.08331 11.352 2.08331 11.107 2.17143 10.9112C2.25768 10.7196 2.40209 10.56 2.58416 10.4551C2.77019 10.348 3.01399 10.3236 3.5016 10.2748H3.5016C4.42519 10.1825 4.88698 10.1363 5.12789 9.92509C5.36176 9.72007 5.48693 9.4179 5.46653 9.10756C5.44552 8.78786 5.15162 8.42865 4.56381 7.71022C4.25344 7.33088 4.09826 7.14121 4.0425 6.93387C3.98794 6.73099 3.99865 6.51608 4.07313 6.31964C4.14925 6.11887 4.32253 5.9456 4.66908 5.59905L5.59962 4.6685L5.59962 4.6685C5.94606 4.32206 6.11928 4.14884 6.31998 4.07272C6.51649 3.99818 6.7315 3.98746 6.93446 4.04207C7.14173 4.09785 7.33135 4.25299 7.7106 4.56329L7.7106 4.56329C8.42873 5.15085 8.7878 5.44463 9.10731 5.46573C9.41787 5.48623 9.72027 5.36098 9.92536 5.12688C10.1364 4.88603 10.1825 4.42447 10.2748 3.50135C10.3236 3.01399 10.3479 2.77031 10.455 2.58436C10.5599 2.40214 10.7196 2.25762 10.9114 2.17136C11.1071 2.08333 11.352 2.08333 11.8417 2.08333H13.1581C13.648 2.08333 13.893 2.08333 14.0887 2.17141C14.2804 2.25766 14.44 2.40212 14.5449 2.58426C14.652 2.77026 14.6764 3.014 14.7251 3.50149ZM12.5 16.6667C14.8012 16.6667 16.6666 14.8012 16.6666 12.5C16.6666 10.1988 14.8012 8.33333 12.5 8.33333C10.1988 8.33333 8.33331 10.1988 8.33331 12.5C8.33331 14.8012 10.1988 16.6667 12.5 16.6667Z" fill="#FDFDFE"/>
</svg>
