<svg width="30" height="30" viewBox="0 0 30 30" fill="none" xmlns="http://www.w3.org/2000/svg">
<path d="M10 2.5L9.64645 2.14645L10 1.79289L10.3536 2.14645L10 2.5ZM10.5 21.25C10.5 21.5261 10.2761 21.75 10 21.75C9.72386 21.75 9.5 21.5261 9.5 21.25L10.5 21.25ZM4.64645 7.14645L9.64645 2.14645L10.3536 2.85355L5.35355 7.85355L4.64645 7.14645ZM10.3536 2.14645L15.3536 7.14645L14.6464 7.85355L9.64645 2.85355L10.3536 2.14645ZM10.5 2.5L10.5 21.25L9.5 21.25L9.5 2.5L10.5 2.5Z" fill="#101D46"/>
<path d="M20 27.5L19.6464 27.8536L20 28.2071L20.3536 27.8536L20 27.5ZM20.5 8.75C20.5 8.47386 20.2761 8.25 20 8.25C19.7239 8.25 19.5 8.47386 19.5 8.75L20.5 8.75ZM14.6464 22.8536L19.6464 27.8536L20.3536 27.1464L15.3536 22.1464L14.6464 22.8536ZM20.3536 27.8536L25.3536 22.8536L24.6464 22.1464L19.6464 27.1464L20.3536 27.8536ZM20.5 27.5L20.5 8.75L19.5 8.75L19.5 27.5L20.5 27.5Z" fill="#101D46"/>
</svg>
