<svg width="20" height="21" viewBox="0 0 20 21" fill="none" xmlns="http://www.w3.org/2000/svg">
<g id="Group">
<path id="Vector" d="M13.5384 9.98976C15.7948 9.98976 17.6409 8.15307 17.6409 5.90817C17.6409 3.66327 15.7948 1.82654 13.5384 1.82654C13.4358 1.82654 13.3333 1.82654 13.2307 1.82654C13.8461 2.84695 14.2563 4.07144 14.2563 5.29593C14.2563 7.03062 13.5384 8.66326 12.4102 9.88776C12.7179 9.98976 13.1281 9.98976 13.5384 9.98976Z" fill="white"/>
<path id="Vector_2" d="M15.2824 12.1326H14.2568C15.7952 13.4591 16.8209 15.5001 16.8209 17.7449C16.8209 18.2552 16.7183 18.6633 16.6157 19.0715C17.9491 18.8674 18.7696 18.5613 19.2824 18.2552C19.7952 17.949 20.0004 17.4388 20.0004 16.8266C20.0004 14.2756 17.8465 12.1326 15.2824 12.1326Z" fill="white"/>
<path id="Vector_3" d="M7.38494 9.9897C8.61575 9.9897 9.64135 9.5817 10.5645 8.7654C11.5901 7.94898 12.1029 6.62245 12.1029 5.29592C12.1029 4.27551 11.7952 3.2551 11.1799 2.54082C10.3593 1.31633 9.02595 0.5 7.38494 0.5C4.82084 0.5 2.66699 2.64286 2.66699 5.19388C2.66699 7.84694 4.82084 9.9897 7.38494 9.9897Z" fill="white"/>
<path id="Vector_4" d="M10.1538 12.4389C9.8462 12.4389 9.641 12.3368 9.3333 12.3368H5.4359C2.46154 12.3368 0 14.7859 0 17.745C0 18.4593 0.30769 18.9695 0.82051 19.3777C1.64103 19.8879 3.58974 20.5 7.38461 20.5C11.1795 20.5 13.0256 19.8879 13.9487 19.3777C13.9487 19.3777 14.0513 19.2757 14.1538 19.2757C14.5641 18.9695 14.8718 18.4593 14.8718 17.745C14.7692 15.092 12.8205 12.8471 10.1538 12.4389Z" fill="white"/>
</g>
</svg>
