<svg width="30" height="30" viewBox="0 0 30 30" fill="none" xmlns="http://www.w3.org/2000/svg">
<path d="M3.75 10.625C3.75 8.15939 3.75 6.92658 4.43097 6.09682C4.55563 5.94492 4.69492 5.80563 4.84682 5.68097C5.67658 5 6.90939 5 9.375 5H20.625C23.0906 5 24.3234 5 25.1532 5.68097C25.3051 5.80563 25.4444 5.94492 25.569 6.09682C26.25 6.92658 26.25 8.15939 26.25 10.625V11.5625C26.25 12.0803 25.8303 12.5 25.3125 12.5H25C23.6193 12.5 22.5 13.6193 22.5 15V15C22.5 16.3807 23.6193 17.5 25 17.5H25.3125C25.8303 17.5 26.25 17.9197 26.25 18.4375V19.375C26.25 21.8406 26.25 23.0734 25.569 23.9032C25.4444 24.0551 25.3051 24.1944 25.1532 24.319C24.3234 25 23.0906 25 20.625 25H9.375C6.90939 25 5.67658 25 4.84682 24.319C4.69492 24.1944 4.55563 24.0551 4.43097 23.9032C3.75 23.0734 3.75 21.8406 3.75 19.375V18.4375C3.75 17.9197 4.16973 17.5 4.6875 17.5H5C6.38071 17.5 7.5 16.3807 7.5 15V15C7.5 13.6193 6.38071 12.5 5 12.5H4.6875C4.16973 12.5 3.75 12.0803 3.75 11.5625V10.625Z" stroke="#222222"/>
<path d="M14.446 13.3607C14.6561 12.817 14.7612 12.5451 14.9319 12.5074C14.9768 12.4975 15.0232 12.4975 15.0681 12.5074C15.2388 12.5451 15.3439 12.817 15.554 13.3607C15.6736 13.6699 15.7333 13.8245 15.8451 13.9296C15.8765 13.9591 15.9105 13.9854 15.9468 14.0081C16.076 14.0889 16.2374 14.1039 16.56 14.1339C17.1062 14.1847 17.3793 14.21 17.4627 14.3716C17.48 14.4051 17.4918 14.4413 17.4975 14.4788C17.5251 14.6599 17.3244 14.8495 16.9228 15.2286L16.8113 15.3339C16.6236 15.5111 16.5297 15.5997 16.4754 15.7103C16.4428 15.7767 16.421 15.8481 16.4108 15.9218C16.3937 16.0447 16.4212 16.1733 16.4762 16.4304L16.4958 16.5223C16.5944 16.9834 16.6437 17.2139 16.5822 17.3273C16.5269 17.4291 16.4251 17.4942 16.3126 17.4998C16.1874 17.506 16.011 17.3568 15.6582 17.0585C15.4257 16.8619 15.3095 16.7636 15.1804 16.7252C15.0625 16.6901 14.9375 16.6901 14.8196 16.7252C14.6905 16.7636 14.5743 16.8619 14.3418 17.0585C13.989 17.3568 13.8126 17.506 13.6874 17.4998C13.5749 17.4942 13.4731 17.4291 13.4178 17.3273C13.3563 17.2139 13.4056 16.9834 13.5042 16.5223L13.5238 16.4304C13.5788 16.1733 13.6063 16.0447 13.5892 15.9218C13.579 15.8481 13.5572 15.7767 13.5246 15.7103C13.4703 15.5997 13.3764 15.5111 13.1887 15.3339L13.0772 15.2286C12.6756 14.8495 12.4749 14.6599 12.5025 14.4788C12.5082 14.4413 12.52 14.4051 12.5373 14.3716C12.6207 14.21 12.8938 14.1847 13.44 14.1339C13.7626 14.1039 13.924 14.0889 14.0532 14.0081C14.0895 13.9854 14.1235 13.9591 14.1549 13.9296C14.2667 13.8245 14.3264 13.6699 14.446 13.3607Z" fill="#222222" stroke="#222222"/>
</svg>
